#!OML:ASF I:\Random Stuff\random\construction\7_22_03\Session 2\subj1.ASF
:FULLY-SPECIFIED
:DEGREES
2402
root -8.86014 17.6877 -5.68631 -132.516 75.3753 -151.755
lowerback 16.1305 0.599697 -10.0812
upperback 6.47035 -0.18099 -7.48025
thorax -2.02013 0.18649 -2.24597
lowerneck -20.7803 -0.518417 -0.429075
upperneck 42.2985 1.25115 1.45897
head 20.0719 1.10609 1.26994
rclavicle -6.04305e-014 6.36111e-015
rhumerus -13.6009 54.1865 -59.6632
rradius 92.0738
rwrist -1.67316
rhand -32.7574 24.2497
rfingers 7.12502
rthumb -5.98002 -5.64591
lclavicle -6.04305e-014 6.36111e-015
lhumerus 34.0897 -64.6838 61.2928
lradius 41.3157
lwrist 2.66087
lhand -30.6138 43.012
lfingers 7.12502
lthumb -3.91018 -1367.04
rfemur -15.366 0.282809 18.9081
rtibia 1.03368e-014
rfoot 0.679156 -14.4847
rtoes -23.5993
lfemur -38.9124 -3.78317 -6.56807
ltibia 31.9906
lfoot -12.3721 -0.718679
ltoes -30.5495
2403
root -8.86048 17.6896 -5.68249 -132.453 75.3976 -151.707
lowerback 16.0691 0.614952 -10.0878
upperback 6.47069 -0.15472 -7.45107
thorax -1.98806 0.196581 -2.21432
lowerneck -20.8008 -0.526824 -0.536892
upperneck 42.3251 1.24522 1.55831
head 20.0941 1.10069 1.33938
rclavicle 9.54166e-015 0
rhumerus -13.5986 54.0471 -59.6616
rradius 92.0924
rwrist -1.7776
rhand -32.7224 24.181
rfingers 7.12502
rthumb -5.94622 -5.71559
lclavicle 9.54166e-015 0
lhumerus 34.2932 -64.6903 61.1139
lradius 41.347
lwrist 2.85182
lhand -30.7462 43.0739
lfingers 7.12502
lthumb -4.0381 -1366.98
rfemur -15.3844 0.310248 18.9141
rtibia -3.97569e-015
rfoot 0.689592 -14.4719
rtoes -23.4795
lfemur -38.9111 -3.81966 -6.52664
ltibia 31.9796
lfoot -12.3906 -0.675185
ltoes -30.3344
2404
root -8.86061 17.6908 -5.6792 -132.41 75.4211 -151.66
lowerback 16.0467 0.629406 -10.0709
upperback 6.4534 -0.135443 -7.4256
thorax -1.99613 0.204769 -2.19931
lowerneck -20.767 -0.510353 -0.581474
upperneck 42.3792 1.28302 1.61109
head 20.1186 1.11741 1.38449
rclavicle -4.13472e-014 -5.40694e-014
rhumerus -13.6621 53.9111 -59.7215
rradius 92.0672
rwrist -1.62223
rhand -32.7747 24.1512
rfingers 7.12502
rthumb -5.99672 -5.74398
lclavicle -4.13472e-014 -5.40694e-014
lhumerus 34.3056 -64.6946 61.1104
lradius 41.378
lwrist 3.02898
lhand -30.7172 43.1861
lfingers 7.12502
lthumb -4.01002 -1366.87
rfemur -15.4081 0.337433 18.9173
rtibia -2.38542e-014
rfoot 0.734674 -14.4494
rtoes -23.8364
lfemur -38.8857 -3.83787 -6.50569
ltibia 31.9645
lfoot -12.3796 -0.694879
ltoes -29.9792
2405
root -8.86181 17.6905 -5.67528 -132.45 75.4367 -151.699
lowerback 16.031 0.63158 -10.0428
upperback 6.4447 -0.129282 -7.41123
thorax -1.99822 0.207141 -2.2001
lowerneck -20.7086 -0.464649 -0.486534
upperneck 42.343 1.35805 1.51007
head 20.0775 1.148 1.33128
rclavicle -3.18055e-015 -9.54166e-015
rhumerus -13.5994 53.7777 -59.7015
rradius 91.9747
rwrist -1.39015
rhand -32.7099 23.9536
rfingers 7.12502
rthumb -5.93415 -5.9433
lclavicle -3.18055e-015 -9.54166e-015
lhumerus 34.2591 -64.6664 61.1729
lradius 41.3791
lwrist 3.17574
lhand -30.5037 43.286
lfingers 7.12502
lthumb -3.80391 -1366.77
rfemur -15.4139 0.342096 18.9066
rtibia -4.29375e-014
rfoot 0.689116 -14.4464
rtoes -23.732
lfemur -38.877 -3.83997 -6.51392
ltibia 31.9417
lfoot -12.3391 -0.67497
ltoes -29.9728
2406
root -8.86496 17.6892 -5.67213 -132.538 75.4311 -151.791
lowerback 16.0202 0.624903 -9.97165
upperback 6.44805 -0.12641 -7.41254
thorax -1.99059 0.20887 -2.24087
lowerneck -20.7113 -0.434856 -0.455068
upperneck 42.2808 1.38915 1.48934
head 20.0365 1.16142 1.31973
rclavicle -6.36111e-015 -4.77083e-014
rhumerus -13.5142 53.6044 -59.6468
rradius 91.8933
rwrist -1.06383
rhand -32.4507 23.491
rfingers 7.12502
rthumb -5.68388 -6.41274
lclavicle -6.36111e-015 -4.77083e-014
lhumerus 34.3215 -64.6847 61.1098
lradius 41.4019
lwrist 3.29274
lhand -30.3237 43.4094
lfingers 7.12502
lthumb -3.63009 -1366.64
rfemur -15.9774 0.307497 18.9038
rtibia 1.11998
rfoot 0.0837204 -14.5486
rtoes -23.3912
lfemur -38.8954 -3.85685 -6.52225
ltibia 31.9129
lfoot -12.3132 -0.584357
ltoes -30.5903
2407
root -8.86799 17.6888 -5.67165 -132.69 75.4409 -151.935
lowerback 16.0227 0.61736 -9.92689
upperback 6.44715 -0.131038 -7.40928
thorax -1.99384 0.206909 -2.2612
lowerneck -20.7987 -0.466077 -0.554253
upperneck 42.3084 1.34306 1.57595
head 20.0797 1.13922 1.37315
rclavicle -2.22639e-014 -8.26944e-014
rhumerus -13.4913 53.4537 -59.5843
rradius 91.8895
rwrist -0.507139
rhand -32.1192 22.53
rfingers 7.12502
rthumb -5.36379 -7.38209
lclavicle -2.22639e-014 -8.26944e-014
lhumerus 34.3747 -64.7339 61.0219
lradius 41.4607
lwrist 3.33793
lhand -30.2643 43.4453
lfingers 7.12502
lthumb -3.57273 -1366.6
rfemur -16.4334 0.274947 18.8758
rtibia 1.9934
rfoot -0.269168 -14.6463
rtoes -23.6948
lfemur -38.8916 -3.81475 -6.59132
ltibia 31.8843
lfoot -12.2967 -0.590643
ltoes -31.04
2408
root -8.86979 17.6898 -5.6708 -132.92 75.4771 -152.142
lowerback 16.0217 0.604637 -9.97576
upperback 6.45643 -0.152729 -7.38941
thorax -1.98154 0.194889 -2.20899
lowerneck -20.8656 -0.480341 -0.561103
upperneck 42.3419 1.34805 1.52346
head 20.1224 1.1316 1.35136
rclavicle 3.65764e-014 -1.90833e-014
rhumerus -13.3669 53.3457 -59.4318
rradius 91.9036
rwrist 0.286556
rhand -31.7016 21.2237
rfingers 7.12502
rthumb -4.96057 -8.69824
lclavicle 3.65764e-014 -1.90833e-014
lhumerus 34.3869 -64.7239 60.9702
lradius 41.489
lwrist 3.29573
lhand -30.2956 43.31
lfingers 7.12502
lthumb -3.60293 -1366.74
rfemur -16.6475 0.253966 18.8128
rtibia 2.44378
rfoot -0.448255 -14.6962
rtoes -23.9967
lfemur -38.8558 -3.76174 -6.69517
ltibia 31.8665
lfoot -12.2911 -0.653788
ltoes -31.0899
2409
root -8.8718 17.6905 -5.66713 -133.007 75.4805 -152.214
lowerback 16.0288 0.59352 -9.97426
upperback 6.44945 -0.16984 -7.38055
thorax -1.99242 0.186379 -2.19746
lowerneck -20.8428 -0.470895 -0.489863
upperneck 42.3314 1.36546 1.44515
head 20.1098 1.13896 1.30234
rclavicle 5.40694e-014 3.49861e-014
rhumerus -13.2828 53.1634 -59.3886
rradius 91.8405
rwrist 1.22844
rhand -31.3332 20.0501
rfingers 7.12502
rthumb -4.6049 -9.87983
lclavicle 5.40694e-014 3.49861e-014
lhumerus 34.3995 -64.7297 60.9494
lradius 41.4156
lwrist 3.17522
lhand -30.3067 43.1802
lfingers 7.12502
lthumb -3.6136 -1366.87
rfemur -16.7208 0.242424 18.8052
rtibia 2.63942
rfoot -0.627499 -14.6843
rtoes -23.6318
lfemur -38.8365 -3.7776 -6.69208
ltibia 31.8586
lfoot -12.2895 -0.67715
ltoes -30.9979
2410
root -8.87407 17.6912 -5.66303 -132.933 75.4502 -152.141
lowerback 16.0285 0.591859 -9.86867
upperback 6.41998 -0.164075 -7.38729
thorax -2.0269 0.190702 -2.26407
lowerneck -20.8192 -0.497289 -0.52653
upperneck 42.3348 1.30291 1.52975
head 20.1051 1.12235 1.33752
rclavicle 3.33958e-014 1.27222e-014
rhumerus -13.34 52.9145 -59.4969
rradius 91.7303
rwrist 2.01712
rhand -31.2011 18.6466
rfingers 7.12502
rthumb -4.47735 -11.2861
lclavicle 3.33958e-014 1.27222e-014
lhumerus 34.5458 -64.8381 60.8133
lradius 41.3196
lwrist 3.15434
lhand -30.2778 43.1944
lfingers 7.12502
lthumb -3.5857 -1366.86
rfemur -16.8154 0.235274 18.8502
rtibia 2.83471
rfoot -0.809405 -14.6729
rtoes -23.1073
lfemur -38.8443 -3.84063 -6.60177
ltibia 31.8501
lfoot -12.2569 -0.668242
ltoes -30.5781
2411
root -8.87532 17.6908 -5.65914 -132.807 75.4398 -152.008
lowerback 15.9997 0.610846 -9.78291
upperback 6.40855 -0.12721 -7.3747
thorax -2.02715 0.208367 -2.30376
lowerneck -20.7862 -0.537497 -0.555306
upperneck 42.3009 1.23084 1.56284
head 20.0737 1.09538 1.34156
rclavicle -9.54166e-015 -4.45278e-014
rhumerus -13.3545 52.6938 -59.51
rradius 91.6623
rwrist 2.30833
rhand -31.0944 16.7669
rfingers 7.12502
rthumb -4.3743 -13.1679
lclavicle -9.54166e-015 -4.45278e-014
lhumerus 34.9943 -65.0147 60.368
lradius 41.3237
lwrist 3.40802
lhand -30.3554 43.3939
lfingers 7.12502
lthumb -3.66066 -1366.66
rfemur -16.9402 0.253907 18.8972
rtibia 3.03673
rfoot -0.855807 -14.6785
rtoes -23.413
lfemur -38.8437 -3.8256 -6.55276
ltibia 31.8395
lfoot -12.2295 -0.663659
ltoes -30.5917
2412
root -8.87613 17.6905 -5.65499 -132.715 75.4365 -151.889
lowerback 15.9854 0.616485 -9.75085
upperback 6.4121 -0.114487 -7.34489
thorax -2.01701 0.21309 -2.2912
lowerneck -20.7099 -0.554724 -0.515638
upperneck 42.2159 1.20089 1.49666
head 19.9964 1.08055 1.29006
rclavicle 6.36111e-015 7.31528e-014
rhumerus -13.1801 52.5445 -59.3778
rradius 91.603
rwrist 2.31664
rhand -30.8002 14.6288
rfingers 7.12502
rthumb -4.09023 -15.3116
lclavicle 6.36111e-015 7.31528e-014
lhumerus 35.3365 -65.0832 60.0296
lradius 41.3222
lwrist 3.66019
lhand -30.5312 43.6383
lfingers 7.12502
lthumb -3.83044 -1366.42
rfemur -16.9867 0.279056 18.9429
rtibia 3.14149
rfoot -0.841723 -14.6996
rtoes -23.7292
lfemur -38.821 -3.78831 -6.52896
ltibia 31.8315
lfoot -12.2231 -0.648167
ltoes -30.963
